# xmcd CD database file
#
# Track frame offsets:
#	150
#	18726
#	35452
#	47785
#	60238
#	89805
#	108651
#	121844
#	149229
#	172802
#	189341
#	212054
#	232672
#	245842
#	260602
#
# Disc length: 3733 seconds
#
# Revision: 1
# Processed by: cddbd v1.5.2PL0 Copyright (c) Steve Scherf et al.
# Submitted via: CDex 1.70beta2
#
DISCID=d80e930f
DTITLE=8 to the Bar - live im Live
DYEAR=2008
DGENRE=Blues
TTITLE0=01 - Beat me Daddy 8 to the Bar
TTITLE1=02 - Hello Josephine
TTITLE2=03 - All shook up
TTITLE3=04 - Johnny B. Goode
TTITLE4=05 - Carress me Baby
TTITLE5=06 - I got a woman
TTITLE6=07 - The Fat Man
TTITLE7=08 - Unchain my heart
TTITLE8=09 - Sliding
TTITLE9=10 - Round and Round
TTITLE10=11 - Bad Moon Rising
TTITLE11=12 - Laﬂ die Morgensonne
TTITLE12=13 - Oh Carola
TTITLE13=14 - 30 Days
TTITLE14=15 - Jersey Girl
EXTD=YEAR: 2008
EXTT0=
EXTT1=
EXTT2=
EXTT3=
EXTT4=
EXTT5=
EXTT6=
EXTT7=
EXTT8=
EXTT9=
EXTT10=
EXTT11=
EXTT12=
EXTT13=
EXTT14=
PLAYORDER=
